<svg width="512" height="512" viewBox="0 0 512 512" fill="none" xmlns="http://www.w3.org/2000/svg">
<g clip-path="url(#clip0_2727_130)">
<path d="M256.288 506.832C393.929 506.832 505.504 395.258 505.504 257.616C505.504 119.974 393.929 8.4 256.288 8.4C118.646 8.4 7.07178 119.974 7.07178 257.616C7.07178 395.258 118.646 506.832 256.288 506.832Z" fill="#D68275" fill-opacity="0.75"/>
<path d="M293.448 118.928C298.241 120.215 302.327 123.353 304.809 127.651C307.291 131.949 307.965 137.057 306.683 141.852L242.057 383.077C240.769 387.876 237.628 391.966 233.324 394.448C229.02 396.93 223.907 397.6 219.108 396.312C214.31 395.024 210.22 391.883 207.738 387.579C205.256 383.275 204.585 378.162 205.873 373.363L270.525 132.173C271.813 127.38 274.95 123.293 279.248 120.812C283.547 118.33 288.653 117.646 293.448 118.928ZM330.457 169.48C333.968 165.973 338.729 164.002 343.692 164.002C348.655 164.002 353.416 165.973 356.927 169.48L362.146 174.674C378.003 190.531 391.237 203.765 400.328 215.677C409.917 228.263 416.659 241.547 416.659 257.628C416.659 273.709 409.917 286.994 400.328 299.58C391.238 311.491 378.004 324.727 362.122 340.582L356.928 345.777C355.212 347.613 353.144 349.085 350.848 350.105C348.552 351.125 346.073 351.673 343.561 351.716C341.048 351.758 338.553 351.295 336.223 350.353C333.894 349.411 331.777 348.01 330.001 346.233C328.224 344.456 326.823 342.34 325.881 340.01C324.939 337.681 324.475 335.185 324.518 332.673C324.561 330.16 325.108 327.682 326.129 325.386C327.149 323.089 328.621 321.022 330.457 319.306L334.727 315.011C351.758 297.981 363.169 286.543 370.536 276.854C377.603 267.615 379.201 262.221 379.201 257.626C379.201 253.032 377.603 247.638 370.536 238.398C363.17 228.734 351.757 217.273 334.727 200.241L330.457 195.946C326.95 192.435 324.979 187.674 324.979 182.711C324.979 177.748 326.949 172.992 330.457 169.48ZM155.657 169.476C159.206 166.16 163.905 164.352 168.761 164.435C173.618 164.517 178.252 166.483 181.687 169.917C185.121 173.352 187.087 177.986 187.169 182.843C187.252 187.699 185.444 192.397 182.128 195.946L177.858 200.241C160.827 217.272 149.441 228.709 142.049 238.398C134.982 247.638 133.409 253.032 133.409 257.626C133.409 262.221 134.982 267.615 142.049 276.854C149.44 286.518 160.828 297.98 177.858 315.011L182.153 319.306C183.933 321.036 185.352 323.103 186.326 325.387C187.301 327.67 187.812 330.125 187.829 332.607C187.846 335.09 187.369 337.551 186.427 339.848C185.484 342.145 184.094 344.231 182.338 345.986C180.581 347.741 178.494 349.129 176.196 350.069C173.898 351.01 171.436 351.484 168.954 351.465C166.471 351.445 164.017 350.932 161.735 349.956C159.452 348.979 157.386 347.559 155.658 345.777L150.464 340.582C134.582 324.726 121.346 311.491 112.258 299.58C102.669 286.994 95.9512 273.709 95.9512 257.628C95.9512 241.547 102.693 228.263 112.258 215.677C121.347 203.766 134.581 190.53 150.464 174.674L155.657 169.476Z" fill="white"/>
</g>
<defs>
<clipPath id="clip0_2727_130">
<rect width="512" height="512" fill="white"/>
</clipPath>
</defs>
</svg>
